<mxfile host="app.diagrams.net" agent="Mozilla/5.0 (Windows NT 10.0; Win64; x64) AppleWebKit/537.36 (KHTML, like Gecko) Chrome/134.0.0.0 Safari/537.36" version="26.1.1">
  <diagram name="Página-1" id="OfVZ6UvLtz5JdHzEnnab">
    <mxGraphModel dx="1050" dy="563" grid="1" gridSize="10" guides="1" tooltips="1" connect="1" arrows="1" fold="1" page="1" pageScale="1" pageWidth="827" pageHeight="1169" math="0" shadow="0">
      <root>
        <mxCell id="0" />
        <mxCell id="1" parent="0" />
        <mxCell id="yZLgcvVgE9l0H-95Rk-x-30" value="" style="rounded=0;whiteSpace=wrap;html=1;fillColor=#fff2cc;strokeColor=#d6b656;" vertex="1" parent="1">
          <mxGeometry x="120" y="10" width="580" height="720" as="geometry" />
        </mxCell>
        <mxCell id="yZLgcvVgE9l0H-95Rk-x-27" style="edgeStyle=orthogonalEdgeStyle;rounded=0;orthogonalLoop=1;jettySize=auto;html=1;dashed=1;" edge="1" parent="1" source="yZLgcvVgE9l0H-95Rk-x-11" target="yZLgcvVgE9l0H-95Rk-x-9">
          <mxGeometry relative="1" as="geometry" />
        </mxCell>
        <mxCell id="yZLgcvVgE9l0H-95Rk-x-11" value="Solicitar nuevo personaje no agregado" style="ellipse;whiteSpace=wrap;html=1;fillColor=#dae8fc;strokeColor=#6c8ebf;" vertex="1" parent="1">
          <mxGeometry x="160" y="390" width="120" height="80" as="geometry" />
        </mxCell>
        <mxCell id="yZLgcvVgE9l0H-95Rk-x-21" value="" style="group" vertex="1" connectable="0" parent="1">
          <mxGeometry x="360" y="390" width="400" height="250" as="geometry" />
        </mxCell>
        <mxCell id="yZLgcvVgE9l0H-95Rk-x-15" style="edgeStyle=orthogonalEdgeStyle;rounded=0;orthogonalLoop=1;jettySize=auto;html=1;exitX=0;exitY=0.3333333333333333;exitDx=0;exitDy=0;exitPerimeter=0;entryX=1;entryY=0.5;entryDx=0;entryDy=0;" edge="1" parent="yZLgcvVgE9l0H-95Rk-x-21" source="yZLgcvVgE9l0H-95Rk-x-7" target="yZLgcvVgE9l0H-95Rk-x-8">
          <mxGeometry relative="1" as="geometry" />
        </mxCell>
        <mxCell id="yZLgcvVgE9l0H-95Rk-x-7" value="&lt;div&gt;Administrador&lt;/div&gt;&lt;div&gt;&lt;br&gt;&lt;/div&gt;" style="shape=umlActor;verticalLabelPosition=bottom;verticalAlign=top;html=1;" vertex="1" parent="yZLgcvVgE9l0H-95Rk-x-21">
          <mxGeometry x="370" y="150" width="30" height="60" as="geometry" />
        </mxCell>
        <mxCell id="yZLgcvVgE9l0H-95Rk-x-16" style="edgeStyle=orthogonalEdgeStyle;rounded=0;orthogonalLoop=1;jettySize=auto;html=1;exitX=0;exitY=0;exitDx=0;exitDy=0;entryX=1;entryY=0.5;entryDx=0;entryDy=0;dashed=1;" edge="1" parent="yZLgcvVgE9l0H-95Rk-x-21" source="yZLgcvVgE9l0H-95Rk-x-8" target="yZLgcvVgE9l0H-95Rk-x-9">
          <mxGeometry relative="1" as="geometry" />
        </mxCell>
        <mxCell id="yZLgcvVgE9l0H-95Rk-x-18" value="&amp;lt;&amp;lt;Extend&amp;gt;&amp;gt;" style="edgeLabel;html=1;align=center;verticalAlign=middle;resizable=0;points=[];" vertex="1" connectable="0" parent="yZLgcvVgE9l0H-95Rk-x-16">
          <mxGeometry x="-0.0538" y="2" relative="1" as="geometry">
            <mxPoint as="offset" />
          </mxGeometry>
        </mxCell>
        <mxCell id="yZLgcvVgE9l0H-95Rk-x-17" style="edgeStyle=orthogonalEdgeStyle;rounded=0;orthogonalLoop=1;jettySize=auto;html=1;exitX=0;exitY=1;exitDx=0;exitDy=0;entryX=1;entryY=0.5;entryDx=0;entryDy=0;dashed=1;" edge="1" parent="yZLgcvVgE9l0H-95Rk-x-21" source="yZLgcvVgE9l0H-95Rk-x-8" target="yZLgcvVgE9l0H-95Rk-x-10">
          <mxGeometry relative="1" as="geometry" />
        </mxCell>
        <mxCell id="yZLgcvVgE9l0H-95Rk-x-19" value="&amp;lt;&amp;lt;Extend&amp;gt;&amp;gt;" style="edgeLabel;html=1;align=center;verticalAlign=middle;resizable=0;points=[];" vertex="1" connectable="0" parent="yZLgcvVgE9l0H-95Rk-x-17">
          <mxGeometry x="-0.0737" y="1" relative="1" as="geometry">
            <mxPoint as="offset" />
          </mxGeometry>
        </mxCell>
        <mxCell id="yZLgcvVgE9l0H-95Rk-x-8" value="Gestionar contenido" style="ellipse;whiteSpace=wrap;html=1;fillColor=#f8cecc;strokeColor=#b85450;" vertex="1" parent="yZLgcvVgE9l0H-95Rk-x-21">
          <mxGeometry x="180" y="90" width="120" height="80" as="geometry" />
        </mxCell>
        <mxCell id="yZLgcvVgE9l0H-95Rk-x-9" value="Añadir Informacion o personajes" style="ellipse;whiteSpace=wrap;html=1;fillColor=#e1d5e7;strokeColor=#9673a6;" vertex="1" parent="yZLgcvVgE9l0H-95Rk-x-21">
          <mxGeometry width="120" height="80" as="geometry" />
        </mxCell>
        <mxCell id="yZLgcvVgE9l0H-95Rk-x-10" value="Eliminar informacion falsa" style="ellipse;whiteSpace=wrap;html=1;fillColor=#f8cecc;strokeColor=#b85450;" vertex="1" parent="yZLgcvVgE9l0H-95Rk-x-21">
          <mxGeometry y="170" width="120" height="80" as="geometry" />
        </mxCell>
        <mxCell id="yZLgcvVgE9l0H-95Rk-x-26" value="" style="group" vertex="1" connectable="0" parent="1">
          <mxGeometry x="80" y="160" width="394" height="200" as="geometry" />
        </mxCell>
        <mxCell id="yZLgcvVgE9l0H-95Rk-x-12" style="edgeStyle=orthogonalEdgeStyle;rounded=0;orthogonalLoop=1;jettySize=auto;html=1;exitX=1;exitY=0.3333333333333333;exitDx=0;exitDy=0;exitPerimeter=0;" edge="1" parent="yZLgcvVgE9l0H-95Rk-x-26" source="yZLgcvVgE9l0H-95Rk-x-4" target="yZLgcvVgE9l0H-95Rk-x-5">
          <mxGeometry relative="1" as="geometry" />
        </mxCell>
        <mxCell id="yZLgcvVgE9l0H-95Rk-x-13" style="edgeStyle=orthogonalEdgeStyle;rounded=0;orthogonalLoop=1;jettySize=auto;html=1;exitX=0.5;exitY=0.5;exitDx=0;exitDy=0;exitPerimeter=0;entryX=0;entryY=0.5;entryDx=0;entryDy=0;" edge="1" parent="yZLgcvVgE9l0H-95Rk-x-26" source="yZLgcvVgE9l0H-95Rk-x-4" target="yZLgcvVgE9l0H-95Rk-x-6">
          <mxGeometry relative="1" as="geometry" />
        </mxCell>
        <mxCell id="yZLgcvVgE9l0H-95Rk-x-14" style="edgeStyle=orthogonalEdgeStyle;rounded=0;orthogonalLoop=1;jettySize=auto;html=1;exitX=1;exitY=1;exitDx=0;exitDy=0;exitPerimeter=0;entryX=0;entryY=0.5;entryDx=0;entryDy=0;" edge="1" parent="yZLgcvVgE9l0H-95Rk-x-26" source="yZLgcvVgE9l0H-95Rk-x-4" target="yZLgcvVgE9l0H-95Rk-x-11">
          <mxGeometry relative="1" as="geometry" />
        </mxCell>
        <mxCell id="yZLgcvVgE9l0H-95Rk-x-4" value="Usuario&lt;div&gt;&lt;br&gt;&lt;/div&gt;" style="shape=umlActor;verticalLabelPosition=bottom;verticalAlign=top;html=1;" vertex="1" parent="yZLgcvVgE9l0H-95Rk-x-26">
          <mxGeometry y="60" width="30" height="60" as="geometry" />
        </mxCell>
        <mxCell id="yZLgcvVgE9l0H-95Rk-x-22" style="edgeStyle=orthogonalEdgeStyle;rounded=0;orthogonalLoop=1;jettySize=auto;html=1;entryX=0;entryY=0;entryDx=0;entryDy=0;dashed=1;" edge="1" parent="yZLgcvVgE9l0H-95Rk-x-26" source="yZLgcvVgE9l0H-95Rk-x-5" target="yZLgcvVgE9l0H-95Rk-x-20">
          <mxGeometry relative="1" as="geometry" />
        </mxCell>
        <mxCell id="yZLgcvVgE9l0H-95Rk-x-25" value="&amp;lt;&amp;lt;Extend&amp;gt;&amp;gt;" style="edgeLabel;html=1;align=center;verticalAlign=middle;resizable=0;points=[];" vertex="1" connectable="0" parent="yZLgcvVgE9l0H-95Rk-x-22">
          <mxGeometry x="-0.122" y="-1" relative="1" as="geometry">
            <mxPoint as="offset" />
          </mxGeometry>
        </mxCell>
        <mxCell id="yZLgcvVgE9l0H-95Rk-x-5" value="Buscar por nombre" style="ellipse;whiteSpace=wrap;html=1;fillColor=#dae8fc;strokeColor=#6c8ebf;" vertex="1" parent="yZLgcvVgE9l0H-95Rk-x-26">
          <mxGeometry x="80" width="120" height="80" as="geometry" />
        </mxCell>
        <mxCell id="yZLgcvVgE9l0H-95Rk-x-23" style="edgeStyle=orthogonalEdgeStyle;rounded=0;orthogonalLoop=1;jettySize=auto;html=1;exitX=1;exitY=0.5;exitDx=0;exitDy=0;entryX=0;entryY=1;entryDx=0;entryDy=0;dashed=1;" edge="1" parent="yZLgcvVgE9l0H-95Rk-x-26" source="yZLgcvVgE9l0H-95Rk-x-6" target="yZLgcvVgE9l0H-95Rk-x-20">
          <mxGeometry relative="1" as="geometry" />
        </mxCell>
        <mxCell id="yZLgcvVgE9l0H-95Rk-x-24" value="&amp;lt;&amp;lt;Extend&amp;gt;&amp;gt;" style="edgeLabel;html=1;align=center;verticalAlign=middle;resizable=0;points=[];" vertex="1" connectable="0" parent="yZLgcvVgE9l0H-95Rk-x-23">
          <mxGeometry x="0.0142" relative="1" as="geometry">
            <mxPoint as="offset" />
          </mxGeometry>
        </mxCell>
        <mxCell id="yZLgcvVgE9l0H-95Rk-x-6" value="Buscar por categoria" style="ellipse;whiteSpace=wrap;html=1;fillColor=#dae8fc;strokeColor=#6c8ebf;" vertex="1" parent="yZLgcvVgE9l0H-95Rk-x-26">
          <mxGeometry x="80" y="120" width="120" height="80" as="geometry" />
        </mxCell>
        <mxCell id="yZLgcvVgE9l0H-95Rk-x-20" value="Leer informacion" style="ellipse;whiteSpace=wrap;html=1;fillColor=#dae8fc;strokeColor=#6c8ebf;" vertex="1" parent="yZLgcvVgE9l0H-95Rk-x-26">
          <mxGeometry x="274" y="60" width="120" height="80" as="geometry" />
        </mxCell>
        <mxCell id="yZLgcvVgE9l0H-95Rk-x-31" value="Servant gallery" style="text;html=1;align=center;verticalAlign=middle;resizable=0;points=[];autosize=1;strokeColor=none;fillColor=none;" vertex="1" parent="1">
          <mxGeometry x="360" y="20" width="100" height="30" as="geometry" />
        </mxCell>
      </root>
    </mxGraphModel>
  </diagram>
</mxfile>
